PathFileType	4	(X/Y/Z)	RBDS016\RBDS016runT45.trc
DataRate	CameraRate	NumFrames	NumMarkers	Units	OrigDataRate	OrigDataStartFrame	OrigNumFrames
150.000000	150.000000	6	33	mm	150.000000	562	4500
Frame#	Time	L.ASIS			L.Heel.Bottom			L.Heel.Lateral			L.Heel.Top			L.Iliac.Crest			L.MT1			L.MT5			L.PSIS			L.Shank.Bottom.Lateral			L.Shank.Bottom.Medial			L.Shank.Top.Lateral			L.Shank.Top.Medial			L.Thigh.Bottom.Lateral			L.Thigh.Bottom.Medial			L.Thigh.Top.Lateral			L.Thigh.Top.Medial			R.ASIS			R.ASY			R.Heel.Bottom			R.Heel.Lateral			R.Heel.Top			R.Iliac.Crest			R.MT1			R.MT5			R.PSIS			R.Shank.Bottom.Lateral			R.Shank.Bottom.Medial			R.Shank.Top.Lateral			R.Shank.Top.Medial			R.Thigh.Bottom.Lateral			R.Thigh.Bottom.Medial			R.Thigh.Top.Lateral			R.Thigh.Top.Medial			
		X1	Y1	Z1	X2	Y2	Z2	X3	Y3	Z3	X4	Y4	Z4	X5	Y5	Z5	X6	Y6	Z6	X7	Y7	Z7	X8	Y8	Z8	X9	Y9	Z9	X10	Y10	Z10	X11	Y11	Z11	X12	Y12	Z12	X13	Y13	Z13	X14	Y14	Z14	X15	Y15	Z15	X16	Y16	Z16	X17	Y17	Z17	X18	Y18	Z18	X19	Y19	Z19	X20	Y20	Z20	X21	Y21	Z21	X22	Y22	Z22	X23	Y23	Z23	X24	Y24	Z24	X25	Y25	Z25	X26	Y26	Z26	X27	Y27	Z27	X28	Y28	Z28	X29	Y29	Z29	X30	Y30	Z30	X31	Y31	Z31	X32	Y32	Z32	X33	Y33	Z33	

563	3.746666666666667	2411.834738123256	875.6043301315847	952.3310572293806	2280.064261790537	33.66656627777579	1068.690262721088	2298.009463444692	52.94939871792086	1023.797359389764	2297.018270978816	79.17307147985595	1068.358733573546	2309.871060975812	929.2610582836583	909.0222669870885	2504.451884178536	40.08593881299831	1056.192129841816	2442.110310204853	40.78921201456152	961.8860177481744	2232.801663160725	894.674376351015	1057.132586087453	2359.446976498364	154.9003225825984	993.6212752869377	2343.584323100955	171.1574843046624	1044.609899587339	2372.825210396032	232.2127229564224	974.3963876790053	2359.538706568925	248.1815890399358	1023.898708287712	2429.787215627374	515.8086599593337	909.8921422941756	2376.468324270399	498.6925029681193	956.5512585778411	2381.566586056047	612.5272623322682	889.6046985070681	2330.355700289223	595.7713754813743	933.7593612077711	2437.689613407693	837.3384277438797	1178.497296534399	1962.973516458864	395.8746128680036	1123.92078441085	1993.684572690422	581.0477779036505	1069.333830953604	2003.138166752623	557.5531661504375	1118.467547145849	2034.665357972732	549.9342999657312	1075.928163446052	2381.07088512444	905.8868643641378	1236.940943897072	1919.54225783978	376.8220665616894	1089.00597979945	1922.289299399673	435.5312230780034	1182.363426525516	2250.315627399883	883.2746132078596	1155.645128396184	2085.635349255731	489.7377328575151	1157.803752262977	2103.597491106882	518.9582395006612	1119.385283205287	2166.292433372985	473.8537282194814	1180.300007969764	2181.035251503238	505.777165124837	1140.586797816941	2356.101335769141	479.4854917296361	1225.874547328567	2304.749120570282	478.3004201414564	1175.388650183021	2333.220006789624	585.8964871049649	1243.413706925172	2285.092358584428	583.8560841495488	1194.983170224992	
564	3.753333333333333	2409.034453736771	873.0141169805752	950.4127078339637	2250.380927546848	34.83794989819324	1068.801788546372	2268.356112557086	54.53956375916278	1023.934678700813	2267.406625465689	80.29090062649486	1068.697869746798	2307.300886100508	927.8091464582478	908.3580908753079	2474.16163667502	40.72446670554092	1055.96390902895	2411.86007290134	41.83625190824664	961.9412971368447	2230.518491731413	894.7717518587667	1056.425238300297	2334.199260239174	156.476503698007	993.9066980544487	2318.902718441195	173.5389125063617	1044.737216778059	2351.341732763273	233.1154612875469	974.6656865656325	2338.59036976445	249.7761589129437	1024.041439354986	2418.539929368882	512.0169974961645	909.813666936402	2365.45321634457	496.7043776312411	957.5152507701146	2372.770172819566	609.8437011921432	889.6093308243642	2321.722177811583	594.7788481511379	934.6961695259054	2435.525860537702	835.3710828122018	1177.175811929132	1985.246682842952	387.5042697296858	1125.395117990374	2008.613172872147	575.0642531868101	1075.248713868546	2019.493144798356	550.7301094970987	1123.857151745065	2050.758423069469	545.3513036268471	1080.814253332298	2378.12275363638	904.3231992120529	1235.494459256365	1942.425589761385	367.9339163540819	1089.425637315555	1943.825665992522	423.9184074167685	1184.732497282038	2247.523448127381	882.9199276898236	1154.602012171827	2105.437746851303	484.8487120436505	1160.592352366933	2122.438948007415	514.8118737969679	1122.394484980169	2186.528115708515	470.1874069098842	1182.271372824408	2200.303738776309	502.6908826811851	1142.692250713051	2372.632782076035	480.008825429271	1225.932666855891	2321.894855867961	475.6035300350634	1175.187367797765	2343.162684225215	584.6774870727539	1243.27872904945	2295.389603890941	579.3699445174531	1194.936136241241	
565	3.76	2406.670792591837	870.8999363899759	948.6400713527617	2220.500686106453	36.03753790785506	1068.786377034472	2238.468020726014	56.0141463880561	1023.852707602101	2237.472959100342	81.46239659795413	1068.742635331952	2305.517631543026	927.0299365439129	907.5629010176161	2443.697549513947	41.65562301102658	1055.488343881995	2381.460832189006	42.68163218157739	961.8030292689706	2228.517373394594	895.4535908870396	1055.020575479423	2308.300019573318	158.009407897638	993.9194131966599	2293.524189116099	175.8125609044848	1044.591387016935	2328.846492557508	233.8466316328859	974.6908360320774	2316.588937925706	251.1450945125614	1023.93769484168	2405.990442334617	508.5504557245267	909.745902579012	2352.958267648948	495.2517896218029	958.2671492432611	2363.315916155057	607.7065018328914	889.7024544072432	2312.318413438389	594.5425210550998	935.5746588331975	2433.43066413593	834.5772980889625	1176.136888071798	2007.855377511888	377.7286908542576	1126.949244402077	2022.256661000351	567.2387090138575	1080.902325198271	2034.745996650376	542.3682772776448	1129.018979469932	2065.709939042922	539.3901867926663	1085.599841596604	2374.895891857133	904.1409558900351	1233.952271946412	1965.934855349849	357.1464577857613	1089.902035376824	1965.523863935564	410.5481725302343	1186.997949919932	2244.912522963744	883.3840049499476	1152.916557466938	2124.59137831328	479.3272245178156	1163.288837915575	2140.251919147326	510.18678478869	1125.359597940673	2206.160675946953	466.7898136847598	1184.182279482858	2218.569783345372	499.997412440074	1144.760352442298	2389.524675213904	482.3986957059807	1226.046959545111	2339.525864521901	474.6516444410412	1175.104492755105	2353.417163913962	584.8958506626503	1243.207885518753	2306.046632573293	576.2146650026882	1195.111276854317	
566	3.766666666666667	2404.841610661161	869.3118248260515	947.055014311634	2190.379977870362	37.39950724922656	1068.641833508368	2208.355948924581	57.48976554743418	1023.570421605724	2207.266823223041	82.81653934120484	1068.51879797413	2304.540198506144	926.9077843409033	906.5982579642412	2413.123152289142	42.63317861606834	1054.88214885368	2350.954296608595	43.25015872418123	961.5392600626546	2226.880194742786	896.6774817906407	1053.019483083592	2281.823101343665	159.5566322105325	993.7113102311396	2267.486577540106	178.040406244197	1044.219612904513	2305.408881685068	234.5060477119032	974.5072056656653	2293.57774578308	252.3924529619621	1023.622171071127	2392.270783204305	505.5648532218105	909.6693660628396	2339.108414112075	494.4691152850554	958.7387523870713	2353.329696361051	606.2156840461168	889.8527656054724	2302.261580713758	595.1452160734761	936.3202269602526	2431.493029278227	834.9884249967546	1175.40088683803	2030.833399848379	366.7242858777381	1128.573588325566	2034.743139779803	557.4660311406988	1086.074939377529	2049.001799974661	532.4507019568405	1133.742685729434	2079.580127669588	531.9432969451138	1090.060098382462	2371.55568992687	905.1838971217185	1232.419544639363	1990.113384139803	344.6348024907392	1090.55070345635	1987.499165599395	395.719833943434	1189.179998926327	2242.580785252278	884.5526911884861	1150.696975362838	2143.033886079686	473.184184450764	1165.803638712288	2156.990550688231	505.040876041179	1128.177262805795	2225.065151474105	463.6515272215804	1185.966123178972	2235.719100615413	497.6429964022445	1146.728984902082	2406.517235164201	486.6240821909944	1226.2204112593	2357.330275246651	475.463149180179	1175.180835460537	2363.864915378072	586.5599276251205	1243.214380602335	2316.92790627244	574.4615768663728	1195.524739662611	
567	3.773333333333333	2403.612478253329	868.2761519175483	945.6876430986247	2160.018622207049	39.10155632884094	1068.365360036653	2178.064917121094	59.12400780756668	1023.105421300923	2176.870152476314	84.515690559075	1068.047720389174	2304.346598275567	927.4088645580021	905.4398955609767	2382.483326761391	43.48980177244937	1054.242776548243	2320.382134833276	43.5312910876203	961.2107273387231	2225.686017661296	898.4138300578395	1050.560525092206	2254.857791488967	161.236635550606	993.3326560356116	2240.858265895083	180.3435989882987	1043.67121598283	2281.127679601502	235.2551131046238	974.157397006957	2269.642079429846	253.6811518551439	1023.140470294567	2377.55507829949	503.2202364793221	909.571451369977	2324.090486760456	494.4976775790554	958.8929035953443	2342.952145873429	605.4551498362097	890.0294747450312	2291.695254236402	596.6546009443812	936.8744917676988	2429.799659759655	836.5886525531826	1174.96277319415	2054.253960648802	354.6836900248587	1130.264103504915	2046.288516535187	545.6695673471785	1090.572518593403	2062.441669466945	520.9738875229527	1137.841885823182	2092.515454981588	522.9215743297352	1093.979850170788	2368.270801262114	907.2498542989235	1230.987377130069	2015.045292842858	330.6139065347358	1091.481090327352	2009.898999667888	379.7475374579695	1191.308030907159	2240.617241252252	886.3353743964556	1148.085013633932	2160.76388220832	466.4194893123433	1168.054520897611	2172.683036092545	499.3098274274267	1130.747800921607	2243.160376282404	460.7208587179821	1187.561746750036	2251.696100440871	495.5198503654631	1148.538043049199	2423.333501468141	492.5822139788638	1226.441312169039	2374.985943647328	478.0006605592245	1175.42763437382	2374.372483386197	589.629789273394	1243.301536439696	2327.890030976221	574.145680035291	1196.161730678455	
568	3.78	2403.014025375108	867.796747836602	944.5537886646395	2129.47166071615	41.35429182898914	1067.952895150239	2147.681174987094	61.10278322927616	1022.47056704979	2146.407783312	86.74452156706317	1067.341741131205	2304.886293566076	928.485831276147	904.0850002488893	2351.813322329031	44.12645947396368	1053.638275702244	2289.789661674997	43.56099687590922	960.8628694416909	2225.003970161371	900.6395438027865	1047.803781870296	2227.516164146172	163.2068315354656	992.8219483122072	2213.745159551194	182.879574358929	1042.987467369772	2256.13323352824	236.2928930544538	973.6807480696699	2244.909806577999	255.2083091256721	1022.537685940661	2362.04937186944	501.6699728540439	909.4489825981666	2308.140878870904	495.476737753474	958.7251332565781	2332.333235282925	605.4881409631154	890.2059114764908	2280.783547462402	599.1199573864453	937.1987208194097	2428.430407466623	839.3190990835617	1174.791413092468	2078.216823312619	341.8114374275788	1132.023129076079	2057.187476213031	531.8145267091497	1094.237875507021	2075.310750391313	507.9547122914435	1141.167051386788	2104.74242969808	512.2679104741342	1097.17287898381	2365.199620451004	910.1259608694608	1229.724257514506	2040.842558477188	315.3353609697371	1092.783014450083	2032.881399678627	362.9450012801414	1193.411960695759	2239.099156886171	888.6679843344355	1145.240769652714	2177.840288247055	459.0278444463859	1169.970856353513	2187.430351054705	492.9163383013581	1132.979863040966	2260.413744825388	457.9125476995377	1188.915734739067	2266.508947798003	493.477124112829	1150.129354014922	2439.699169217705	500.102716948002	1226.682834220555	2392.184893796596	482.172508060812	1175.82245386165	2384.799542657097	594.0170065914276	1243.461614882189	2338.789052505462	575.2605618012428	1196.977551969436	
